<?xml version="1.0" standalone="no"?>
<!DOCTYPE svg PUBLIC "-//W3C//DTD SVG 20010904//EN"
 "http://www.w3.org/TR/2001/REC-SVG-20010904/DTD/svg10.dtd">
<svg version="1.0" xmlns="http://www.w3.org/2000/svg"
 width="358.000000pt" height="87.000000pt" viewBox="0 0 358.000000 87.000000"
 preserveAspectRatio="xMidYMid meet">

<g transform="translate(0.000000,87.000000) scale(0.100000,-0.100000)"
fill="#000000" stroke="none">
<path d="M925 791 c-36 -22 -93 -81 -79 -81 18 0 104 59 111 75 9 24 0 26 -32
6z"/>
<path d="M140 465 l0 -195 53 0 52 0 -3 195 -3 195 -49 0 -50 0 0 -195z"/>
<path d="M355 636 c31 -31 45 -85 45 -171 0 -83 -14 -139 -41 -166 -16 -16
-17 -19 -3 -19 30 0 93 43 120 82 66 95 27 230 -81 279 -55 25 -69 24 -40 -5z"/>
<path d="M750 465 l0 -195 53 0 52 0 -3 195 -3 195 -49 0 -50 0 0 -195z"/>
<path d="M975 643 c36 -20 52 -38 64 -78 8 -26 9 -21 10 33 l1 62 -52 0 -53
-1 30 -16z"/>
<path d="M1330 465 l0 -195 50 0 50 0 0 195 0 195 -50 0 -50 0 0 -195z"/>
<path d="M1545 646 c37 -17 64 -45 75 -82 7 -24 8 -18 9 34 l1 62 -57 0 c-57
-1 -57 -1 -28 -14z"/>
<path d="M1860 465 l0 -195 45 0 45 0 0 195 0 195 -45 0 -45 0 0 -195z"/>
<path d="M2200 465 l0 -195 53 0 52 0 -3 195 -3 195 -49 0 -50 0 0 -195z"/>
<path d="M2780 465 l0 -195 53 0 52 0 -3 195 -3 195 -49 0 -50 0 0 -195z"/>
<path d="M3005 643 c36 -20 52 -38 64 -78 8 -26 9 -21 10 33 l1 62 -52 0 -53
-1 30 -16z"/>
<path d="M960 542 c0 -19 -35 -56 -60 -64 -10 -3 -5 -10 17 -22 21 -10 36 -28
42 -49 7 -26 9 -14 10 61 1 50 -1 92 -4 92 -3 0 -5 -8 -5 -18z"/>
<path d="M2990 542 c0 -19 -35 -56 -60 -64 -10 -3 -5 -10 17 -22 21 -10 36
-28 42 -49 7 -26 9 -14 10 61 1 50 -1 92 -4 92 -3 0 -5 -8 -5 -18z"/>
<path d="M1517 505 c-10 -14 -28 -25 -40 -25 -21 -1 -22 -1 -2 -12 11 -6 30
-20 43 -31 l22 -20 0 56 c0 31 -1 57 -2 57 -2 0 -11 -12 -21 -25z"/>
<path d="M3337 519 c-26 -15 -46 -68 -40 -102 12 -63 98 -88 150 -43 60 52 20
156 -60 156 -18 0 -40 -5 -50 -11z"/>
<path d="M1056 364 c-11 -34 -52 -66 -103 -80 l-48 -13 77 0 77 -1 6 44 c8 51
2 83 -9 50z"/>
<path d="M3086 364 c-11 -34 -52 -66 -103 -80 l-48 -13 77 0 77 -1 6 44 c8 51
2 83 -9 50z"/>
<path d="M2497 344 c-25 -34 -62 -56 -105 -65 -29 -5 -20 -7 41 -8 86 -1 91 2
85 62 l-3 35 -18 -24z"/>
<path d="M630 135 c0 -13 160 -15 1380 -15 1220 0 1380 2 1380 15 0 13 -160
15 -1380 15 -1220 0 -1380 -2 -1380 -15z"/>
</g>
</svg>
